<?xml version="1.0" encoding="utf-8"?>
<!-- Generator: Adobe Illustrator 23.0.4, SVG Export Plug-In . SVG Version: 6.00 Build 0)  -->
<svg version="1.1" xmlns="http://www.w3.org/2000/svg" xmlns:xlink="http://www.w3.org/1999/xlink" x="0px" y="0px"
	 viewBox="0 0 560 288" style="enable-background:new 0 0 560 288;" xml:space="preserve">
<style type="text/css">
	.st0{display:none;}
	.st1{fill:#FFFFFF;}
	.st2{fill:#00FF00;}
</style>
<g id="Layer_1" class="st0">
</g>
<g id="Layer_2">
	<g>
		<g>
			<path class="st1" d="M18.44,156.62c0-6.92-0.23-12.41-0.55-17.91h10.65l0.67,10.9h0.34c3.26-6.23,10.97-12.41,21.92-12.41
				c9.11,0,23.36,5.48,23.36,28.25v39.55h-12v-38.22c0-10.72-4.04-19.69-15.32-19.69c-7.91,0-14.08,5.62-16.25,12.38
				c-0.5,1.47-0.83,3.61-0.83,5.59v39.95h-12V156.62z"/>
			<path class="st1" d="M154.53,171.23c0,24.55-17.03,35.29-32.97,35.29c-17.98,0-31.87-13.1-31.87-34.15
				c0-22.19,14.59-35.16,32.92-35.16C141.67,137.21,154.53,151.04,154.53,171.23z M101.96,172c0,14.54,8.33,25.49,20.1,25.49
				c11.56,0,20.2-10.8,20.2-25.85c0-11.21-5.65-25.4-19.98-25.4C108.12,146.24,101.96,159.43,101.96,172z"/>
			<path class="st1" d="M174.49,138.72l8.9,33.64c1.91,7.4,3.59,14.34,4.93,21.16h0.33c1.48-6.68,3.67-13.88,5.94-21.06l10.83-33.74
				h10.14l10.32,33.16c2.37,7.86,4.32,14.89,5.86,21.64h0.32c1.21-6.71,2.99-13.7,5.15-21.54l9.47-33.26h11.89l-21.41,66.3H226.2
				l-10.08-31.64c-2.4-7.44-4.27-14.07-5.88-21.86h-0.27c-1.67,8-3.73,14.88-6.07,21.96l-10.66,31.53h-11.03l-19.99-66.3H174.49z"/>
			<path class="st2" d="M282.02,112.62h16.66l-14.77,77.86h40.45l-2.73,14.53h-57.13L282.02,112.62z"/>
			<path class="st2" d="M368.2,112.62l-17.53,92.4h-16.66l17.53-92.4H368.2z"/>
			<path class="st2" d="M392.49,205.01l-14.22-92.4h16.82l7.16,50.65c1.37,10.14,2.31,16.9,2.99,25.22h0.33
				c3.3-7.73,7.19-16.02,12.54-26.13l26.45-49.74h18.62l-51.24,92.4H392.49z"/>
			<path class="st2" d="M518.84,164.33h-37.05l-5.02,26.61h41.56l-2.66,14.06h-58.3l17.53-92.4h56.12l-2.74,14.06h-39.38
				l-4.46,23.59h37.13L518.84,164.33z"/>
		</g>
	</g>
	<circle class="st2" cx="547.4" cy="96.14" r="11.63"/>
</g>
</svg>
